<?xml version="1.0" encoding="utf-8"?>
<!-- Generator: Adobe Illustrator 18.0.0, SVG Export Plug-In . SVG Version: 6.00 Build 0)  -->
<!DOCTYPE svg PUBLIC "-//W3C//DTD SVG 1.1//EN" "http://www.w3.org/Graphics/SVG/1.1/DTD/svg11.dtd">
<svg version="1.1" id="Icons" xmlns="http://www.w3.org/2000/svg" xmlns:xlink="http://www.w3.org/1999/xlink" x="0px" y="0px"
	 viewBox="0 0 64 64" enable-background="new 0 0 64 64" xml:space="preserve">
<g id="cogwheels">
	<g>
		<path fill="#6D6E71" d="M22,31c-5,0-9,4-9,9s4,9,9,9c5,0,9-4,9-9S27,31,22,31z M22,48c-4.4,0-8-3.6-8-8s3.6-8,8-8c4.4,0,8,3.6,8,8
			S26.4,48,22,48z"/>
		<path fill="#6D6E71" d="M23,24c0.1,0,0.2,0.1,0.2,0.2l0.6,3c0,0.1,0,0.2,0,0.3l0.1,0.7l0.7,0.1c1.3,0.3,2.6,0.8,3.8,1.6l0.6,0.4
			l0.5-0.4l0.1,0c0.1,0,0.1-0.1,0.2-0.1l2.6-1.7c0,0,0.1,0,0.1,0c0.1,0,0.2,0,0.2,0l1.4,1.4c0.1,0.1,0.1,0.2,0,0.3l-1.7,2.6
			c0,0.1-0.1,0.1-0.2,0.2L31.8,33l0.4,0.6c0.7,1.2,1.3,2.4,1.6,3.8l0.1,0.7l0.7,0.1l0,0v0c0.1,0,0.2,0,0.2,0l3,0.6
			c0.1,0,0.2,0.1,0.2,0.2v2c0,0.1-0.1,0.2-0.2,0.2l-3,0.6c-0.1,0-0.1,0-0.2,0l0,0l0,0L33.8,42l-0.1,0.7c-0.3,1.3-0.8,2.6-1.6,3.8
			L31.8,47l0.4,0.6c0,0.1,0.1,0.1,0.1,0.2l1.7,2.6c0,0.1,0,0.2,0,0.3L32.6,52c0,0-0.1,0-0.2,0c-0.1,0-0.1,0-0.1,0l-2.6-1.7
			c-0.1,0-0.1-0.1-0.2-0.2L29,49.8l-0.6,0.4c-1.2,0.7-2.4,1.3-3.8,1.6L24,51.9l-0.1,0.7c0,0.1,0,0.2,0,0.2l-0.6,3
			c0,0.1-0.1,0.2-0.2,0.2h-2c-0.1,0-0.2-0.1-0.2-0.2l-0.6-3c0-0.1,0-0.1,0-0.2l0-0.1L20,51.8l-0.7-0.1c-1.3-0.3-2.6-0.8-3.8-1.6
			L15,49.8l-0.6,0.4l-0.1,0c-0.1,0-0.1,0.1-0.2,0.1l-2.6,1.7c0,0-0.1,0-0.1,0c-0.1,0-0.1,0-0.2-0.1L10,50.6c-0.1-0.1-0.1-0.2,0-0.3
			l1.7-2.6c0-0.1,0.1-0.1,0.1-0.2l0-0.1l0.4-0.5l-0.4-0.6c-0.7-1.2-1.3-2.4-1.6-3.8L10.2,42l-0.7-0.1l-0.1,0c-0.1,0-0.1,0-0.2,0
			l-3-0.6C6.1,41.2,6,41.1,6,41v-2c0-0.1,0.1-0.2,0.2-0.2l3-0.6c0.1,0,0.1,0,0.2,0l0.1,0l0.7-0.1l0.1-0.7c0.3-1.3,0.8-2.6,1.6-3.8
			l0.4-0.6l-0.4-0.5l0-0.1c0-0.1-0.1-0.1-0.1-0.2L10,29.7c0-0.1,0-0.2,0-0.3l1.4-1.4c0,0,0.1,0,0.2,0c0.1,0,0.1,0,0.1,0l2.6,1.7
			c0.1,0,0.1,0.1,0.2,0.1l0.1,0l0.6,0.4l0.6-0.4c1.2-0.7,2.4-1.3,3.8-1.6l0.7-0.1l0.1-0.7l0-0.1c0-0.1,0-0.1,0-0.2l0.6-3
			c0-0.1,0.1-0.2,0.2-0.2L23,24L23,24z M23,23h-2c-0.5,0-1.1,0.4-1.2,1l-0.6,3c0,0.1,0,0.2-0.1,0.3c-1.5,0.3-2.8,0.9-4.1,1.7
			c-0.1-0.1-0.2-0.1-0.3-0.2l-2.6-1.7c-0.2-0.1-0.4-0.2-0.7-0.2c-0.3,0-0.6,0.1-0.9,0.3l-1.4,1.4c-0.4,0.4-0.5,1.1-0.2,1.5l1.7,2.6
			c0.1,0.1,0.1,0.2,0.2,0.3c-0.8,1.2-1.4,2.6-1.7,4.1c-0.1,0-0.2,0-0.3,0.1l-3,0.6c-0.5,0.1-1,0.6-1,1.2v2c0,0.5,0.4,1.1,1,1.2
			l3,0.6c0.1,0,0.2,0,0.3,0.1c0.3,1.5,0.9,2.8,1.7,4.1c-0.1,0.1-0.1,0.2-0.2,0.3l-1.7,2.6c-0.3,0.5-0.2,1.2,0.2,1.5l1.4,1.4
			c0.2,0.2,0.6,0.3,0.9,0.3c0.2,0,0.5-0.1,0.7-0.2l2.6-1.7c0.1-0.1,0.2-0.1,0.3-0.2c1.2,0.8,2.6,1.4,4.1,1.7c0,0.1,0,0.2,0.1,0.3
			l0.6,3c0.1,0.5,0.6,1,1.2,1h2c0.5,0,1.1-0.4,1.2-1l0.6-3c0-0.1,0-0.2,0.1-0.3c1.5-0.3,2.8-0.9,4.1-1.7c0.1,0.1,0.2,0.1,0.3,0.2
			l2.6,1.7c0.2,0.1,0.4,0.2,0.7,0.2c0.3,0,0.7-0.1,0.9-0.3l1.4-1.4c0.4-0.4,0.5-1.1,0.2-1.5l-1.7-2.6C33.1,47.1,33,47,33,46.9
			c0.8-1.2,1.4-2.6,1.7-4.1c0.1,0,0.2,0,0.3-0.1l3-0.6c0.5-0.1,1-0.6,1-1.2v-2c0-0.5-0.4-1.1-1-1.2l-3-0.6c-0.1,0-0.2,0-0.3-0.1
			c-0.3-1.5-0.9-2.8-1.7-4.1c0.1-0.1,0.1-0.2,0.2-0.3l1.7-2.6c0.3-0.5,0.2-1.1-0.2-1.5l-1.4-1.4c-0.2-0.2-0.6-0.3-0.9-0.3
			c-0.2,0-0.5,0.1-0.7,0.2l-2.6,1.7C29.1,28.9,29,29,28.9,29c-1.2-0.8-2.6-1.4-4.1-1.7c0-0.1,0-0.2-0.1-0.3l-0.6-3
			C24.1,23.4,23.5,23,23,23L23,23z"/>
		<path fill="#6D6E71" d="M22,35.9c-2.2,0-4,1.8-4,4.1s1.8,4.1,4,4.1s4-1.8,4-4.1S24.2,35.9,22,35.9z M22,43c-1.7,0-3-1.3-3-3
			s1.3-3,3-3s3,1.3,3,3S23.7,43,22,43z"/>
		<path fill="#6D6E71" d="M57.4,16.4l-3.1,0c-0.1,0-0.3,0-0.4,0c-0.3-0.6-0.7-1.2-1.1-1.7c0.1-0.1,0.1-0.3,0.2-0.4l1.2-2.9
			c0.2-0.5,0-1.2-0.4-1.5L52,8.8c-0.3-0.2-0.6-0.2-0.9-0.2c-0.2,0-0.5,0.2-0.6,0.3l-2.2,2.2c-0.1,0.1-0.2,0.2-0.3,0.3
			c-0.6-0.2-1.3-0.3-2-0.4c0-0.1-0.1-0.3-0.1-0.4l-1.2-2.9c-0.2-0.5-0.8-0.8-1.4-0.7l-2,0.4c-0.5,0.1-1,0.6-1,1.2l0,3.1
			c0,0.1,0,0.3,0,0.4c-0.6,0.3-1.2,0.7-1.7,1.1c-0.1-0.1-0.3-0.1-0.4-0.2l-2.9-1.2c-0.2-0.1-0.5-0.1-0.7-0.1
			c-0.3,0.1-0.6,0.2-0.8,0.5L32.8,14c-0.3,0.5-0.2,1.1,0.1,1.5l2.2,2.2c0.1,0.1,0.2,0.2,0.3,0.3c-0.2,0.6-0.3,1.3-0.4,2
			c-0.1,0-0.3,0.1-0.4,0.1l-2.9,1.2c-0.5,0.2-0.8,0.8-0.7,1.4l0.4,2c0.1,0.5,0.6,1,1.2,1l3.1,0c0.1,0,0.3,0,0.4,0
			c0.3,0.6,0.7,1.2,1.1,1.7c-0.1,0.1-0.1,0.3-0.2,0.4l-1.2,2.9c-0.2,0.5,0,1.2,0.4,1.5l1.7,1.1c0.3,0.2,0.6,0.2,0.9,0.2
			c0.2,0,0.5-0.2,0.6-0.3l2.2-2.2c0.1-0.1,0.2-0.2,0.3-0.3c0.6,0.2,1.3,0.3,2,0.4c0,0.1,0.1,0.3,0.1,0.4l1.2,2.9
			c0.2,0.5,0.8,0.8,1.4,0.7l2-0.4c0.5-0.1,1-0.6,1-1.2l0-3.1c0-0.1,0-0.3,0-0.4c0.6-0.3,1.2-0.7,1.7-1.1c0.1,0.1,0.3,0.1,0.4,0.2
			l2.9,1.2c0.2,0.1,0.5,0.1,0.7,0.1c0.3-0.1,0.6-0.2,0.8-0.5l1.1-1.7c0.3-0.5,0.2-1.1-0.1-1.5l-2.2-2.2c-0.1-0.1-0.2-0.2-0.3-0.3
			c0.2-0.6,0.3-1.3,0.4-2c0.1,0,0.3-0.1,0.4-0.1l2.9-1.2c0.5-0.2,0.8-0.8,0.7-1.4l-0.4-2C58.4,16.8,57.9,16.4,57.4,16.4z M58,19.5
			c0,0.1-0.1,0.2-0.1,0.2L55,20.9c-0.1,0-0.2,0.1-0.3,0.1L54,21.3L54,21.9c-0.1,0.6-0.2,1.2-0.4,1.8l-0.2,0.6l0.5,0.4
			c0.1,0.1,0.2,0.2,0.3,0.2l2.2,2.2c0.1,0.1,0.1,0.2,0,0.3l-1.1,1.7c0,0-0.1,0.1-0.2,0.1c-0.1,0-0.1,0-0.1,0L52.1,28
			c-0.1,0-0.2-0.1-0.3-0.1l-0.6-0.3L50.7,28c-0.5,0.4-1,0.7-1.5,1l-0.6,0.3l0,0.6c0,0.1,0,0.3,0,0.4l0,3.1c0,0.1-0.1,0.2-0.2,0.2
			l-2,0.4c-0.1,0-0.2-0.1-0.2-0.1L45.1,31c0-0.1-0.1-0.2-0.1-0.3L44.7,30L44.1,30c-0.6-0.1-1.2-0.2-1.8-0.4l-0.6-0.2l-0.4,0.5
			c-0.1,0.1-0.2,0.2-0.2,0.3l-2.2,2.2c0,0,0,0-0.1,0c-0.1,0-0.2,0-0.2,0l-1.7-1.1c-0.1,0-0.1-0.2-0.1-0.3l1.2-2.9
			c0-0.1,0.1-0.2,0.1-0.3l0.3-0.6L38,26.7c-0.4-0.5-0.7-1-1-1.5l-0.3-0.6l-0.6,0c-0.1,0-0.2,0-0.4,0l-3.1,0c-0.1,0-0.2-0.1-0.2-0.2
			l-0.4-2c0-0.1,0.1-0.2,0.1-0.2l2.9-1.2c0.1,0,0.2-0.1,0.3-0.1l0.6-0.2l0.1-0.6c0.1-0.6,0.2-1.2,0.4-1.8l0.2-0.6l-0.5-0.4
			c-0.1-0.1-0.2-0.2-0.3-0.2l-2.2-2.2c-0.1-0.1-0.1-0.2,0-0.3l1.1-1.7c0,0,0.1-0.1,0.2-0.1c0.1,0,0.1,0,0.1,0l2.9,1.2
			c0.1,0,0.2,0.1,0.3,0.1l0.6,0.3l0.5-0.4c0.5-0.4,1-0.7,1.5-1l0.6-0.3l0-0.6c0-0.1,0-0.3,0-0.4l0-3.1c0-0.1,0.1-0.2,0.2-0.2l2-0.4
			c0.1,0,0.2,0.1,0.2,0.1l1.2,2.9c0,0.1,0.1,0.2,0.1,0.3l0.2,0.6l0.6,0.1c0.6,0.1,1.2,0.2,1.8,0.4l0.6,0.2l0.4-0.5
			c0.1-0.1,0.2-0.2,0.2-0.3l2.2-2.2c0,0,0,0,0.1,0c0.1,0,0.2,0,0.2,0l1.7,1.1c0.1,0,0.1,0.2,0.1,0.3L52,13.9c0,0.1-0.1,0.2-0.1,0.3
			l-0.3,0.6l0.4,0.5c0.4,0.5,0.7,1,1,1.5l0.3,0.6l0.6,0c0.1,0,0.2,0,0.4,0l3.1,0c0.1,0,0.2,0.1,0.2,0.2L58,19.5z"/>
		<path fill="#6D6E71" d="M44.2,17.1c-2.2,0.4-3.6,2.5-3.2,4.7c0.4,2.2,2.5,3.6,4.7,3.2c2.2-0.4,3.6-2.5,3.2-4.7
			C48.5,18.1,46.4,16.7,44.2,17.1z M45.6,23.9c-1.6,0.3-3.2-0.7-3.5-2.4c-0.3-1.6,0.7-3.2,2.4-3.5c1.6-0.3,3.2,0.7,3.5,2.4
			C48.3,22.1,47.2,23.6,45.6,23.9z"/>
		<path fill="#6D6E71" d="M40,16.1c-2.7,2.7-2.7,7.2,0,9.9c2.7,2.7,7.2,2.7,9.9,0c2.7-2.7,2.7-7.2,0-9.9
			C47.2,13.3,42.8,13.3,40,16.1z M49.2,25.2c-2.3,2.3-6.1,2.3-8.5,0c-2.3-2.3-2.3-6.1,0-8.5c2.3-2.3,6.1-2.3,8.5,0
			C51.6,19.1,51.6,22.9,49.2,25.2z"/>
		<path fill="#6D6E71" d="M57.7,49.7c0.5-0.1,1.1-0.5,1.1-1.1v0c0.1-0.5-0.2-1.1-0.7-1.3c0,0-0.1,0-0.1,0l-2-0.8c0,0-0.1,0-0.2-0.1
			c-0.1-0.9-0.3-1.8-0.6-2.6c0,0,0.1-0.1,0.1-0.1l1.3-1.6c0.3-0.4,0.4-1.1,0-1.6h0c-0.1-0.1-0.2-0.3-0.4-0.3
			c-0.3-0.2-0.8-0.2-1.1-0.1l-2,0.8c0,0-0.1,0.1-0.2,0.1c-0.4-0.4-0.9-0.7-1.4-1c-0.3-0.2-0.6-0.3-0.9-0.4c0-0.1,0-0.1,0-0.2
			l-0.2-2.1c0-0.4-0.3-0.8-0.7-1c-0.1-0.1-0.2-0.1-0.4-0.1h0c-0.5-0.1-1.2,0.3-1.4,0.8l-0.8,2c0,0,0,0.1-0.1,0.2
			c-0.9,0.1-1.8,0.3-2.6,0.6c0,0-0.1-0.1-0.1-0.1L43,38.2c-0.1,0-0.1-0.1-0.2-0.1c-0.4-0.2-1-0.2-1.4,0.1v0c-0.4,0.3-0.6,1-0.4,1.5
			l0.8,2c0,0,0,0.1,0.1,0.2c-0.4,0.4-0.7,0.9-1,1.4c-0.2,0.3-0.3,0.6-0.4,0.9c-0.1,0-0.1,0-0.2,0l-2.1,0.2c-0.5,0.1-1.1,0.5-1.1,1.1
			h0c-0.1,0.5,0.2,1.1,0.7,1.3c0,0,0.1,0,0.1,0l2,0.8c0,0,0.1,0,0.2,0.1c0.1,0.9,0.3,1.8,0.6,2.6c0,0-0.1,0.1-0.1,0.1L39.2,52
			c-0.3,0.4-0.4,1.1,0,1.6h0c0.1,0.1,0.2,0.3,0.4,0.3c0.3,0.2,0.8,0.2,1.1,0.1l2-0.8c0,0,0.1,0,0.2-0.1c0.4,0.4,0.9,0.7,1.4,1
			c0.3,0.2,0.6,0.3,0.9,0.4c0,0.1,0,0.1,0,0.2l0.2,2.1c0,0.4,0.3,0.8,0.7,1c0.1,0.1,0.2,0.1,0.4,0.1l0,0c0.5,0.1,1.2-0.3,1.4-0.8
			l0.8-2c0,0,0-0.1,0.1-0.2c0.9-0.1,1.8-0.3,2.6-0.6c0,0,0.1,0.1,0.1,0.1l1.6,1.3c0.1,0,0.1,0.1,0.2,0.1c0.4,0.2,1,0.2,1.4-0.1h0
			c0.4-0.3,0.6-1,0.4-1.5l-0.8-2c0,0-0.1-0.1-0.1-0.2c0.4-0.4,0.7-0.9,1-1.4c0.2-0.3,0.3-0.6,0.4-0.9c0.1,0,0.1,0,0.2,0L57.7,49.7z
			 M55.5,48.9L55.5,48.9l-0.1,0l-0.6,0l-0.2,0.6c-0.1,0.3-0.2,0.6-0.4,0.8c-0.2,0.4-0.5,0.8-0.8,1.2L52.9,52l0.3,0.6l0,0.1l0,0
			l0.8,2c0,0.1,0,0.3-0.1,0.3l0,0c-0.1,0-0.2,0.1-0.3,0l0,0L52,53.7l0,0l-0.1-0.1l-0.5-0.4l-0.6,0.3c-0.7,0.3-1.5,0.5-2.2,0.6
			L47.9,54l-0.2,0.6l0,0.1l0,0.1l-0.8,2c0,0.1-0.2,0.2-0.3,0.2c0,0,0,0-0.1,0c-0.1-0.1-0.2-0.2-0.2-0.2l-0.2-2.1l0-0.1l0-0.1l0-0.6
			l-0.6-0.2c-0.3-0.1-0.6-0.2-0.8-0.4c-0.4-0.2-0.8-0.5-1.2-0.8L43,51.9l-0.6,0.3l0,0l0,0l-0.1,0l-2,0.8c0,0-0.2,0-0.3,0
			c0,0-0.1,0-0.1-0.1l0,0c0-0.1,0-0.3,0-0.3l1.3-1.6l0,0l0.1-0.1l0.4-0.5l-0.3-0.6c-0.3-0.7-0.5-1.5-0.6-2.2l0-0.6l-0.6-0.2l-0.1,0
			l0,0l-2-0.8c-0.1-0.1-0.2-0.2-0.2-0.3c0-0.1,0.2-0.2,0.3-0.2l2.1-0.2l0.1,0l0.1,0l0.6,0l0.2-0.6c0.1-0.3,0.2-0.6,0.4-0.8
			c0.2-0.4,0.5-0.8,0.8-1.2l0.4-0.5l-0.3-0.6l0-0.1l0-0.1l-0.8-2c0-0.1,0-0.3,0.1-0.3l0,0c0.1,0,0.2,0,0.3,0l0,0l1.6,1.3l0,0
			l0.1,0.1l0.5,0.4l0.6-0.3c0.7-0.3,1.5-0.5,2.2-0.6l0.6,0l0.2-0.6l0-0.1l0,0l0.8-2c0-0.1,0.2-0.2,0.3-0.2l0,0c0,0,0,0,0,0
			c0.1,0.1,0.2,0.2,0.2,0.2l0.2,2.1l0,0.1l0,0.1l0,0.6l0.6,0.2c0.3,0.1,0.6,0.2,0.8,0.4c0.4,0.2,0.8,0.5,1.2,0.8l0.5,0.4l0.6-0.3
			l0.1,0l0.1,0l2-0.8c0,0,0.2,0,0.3,0c0,0,0.1,0,0.1,0.1c0.1,0.1,0,0.3,0,0.3L54.7,43l0,0l-0.1,0.1l-0.4,0.5l0.3,0.6
			c0.3,0.7,0.5,1.5,0.6,2.2l0,0.6l0.6,0.2l0.1,0l0,0l2,0.8c0.1,0.1,0.2,0.2,0.2,0.3c0,0.1-0.2,0.2-0.3,0.2L55.5,48.9z"/>
		<path fill="#6D6E71" d="M49.7,43.9c-1.7-0.9-3.8-0.3-4.7,1.4c-0.9,1.7-0.3,3.8,1.4,4.7c1.7,0.9,3.8,0.3,4.7-1.4
			C52,47,51.4,44.8,49.7,43.9z M46.8,49.2c-1.2-0.7-1.7-2.2-1-3.4c0.7-1.2,2.2-1.7,3.4-1c1.2,0.7,1.7,2.2,1,3.4
			C49.5,49.4,48,49.9,46.8,49.2z"/>
	</g>
</g>
</svg>
