<?xml version="1.0" encoding="utf-8"?>
<!-- Generator: Adobe Illustrator 18.0.0, SVG Export Plug-In . SVG Version: 6.00 Build 0)  -->
<!DOCTYPE svg PUBLIC "-//W3C//DTD SVG 1.1//EN" "http://www.w3.org/Graphics/SVG/1.1/DTD/svg11.dtd">
<svg version="1.1" id="_x33_5_x5F_statistical_x5F_analysis"
	 xmlns="http://www.w3.org/2000/svg" xmlns:xlink="http://www.w3.org/1999/xlink" x="0px" y="0px" viewBox="0 0 64 60"
	 enable-background="new 0 0 64 60" xml:space="preserve">
<line fill="none" stroke="#6D6E71" stroke-miterlimit="10" x1="0" y1="43" x2="64" y2="43"/>
<path fill="none" stroke="#6D6E71" stroke-miterlimit="10" d="M64,39C47,39,46,1,32,1S17,39,0,39"/>
<line fill="none" stroke="#6D6E71" stroke-miterlimit="10" x1="19" y1="16" x2="19" y2="43"/>
<line fill="none" stroke="#6D6E71" stroke-miterlimit="10" x1="32" y1="1" x2="32" y2="43"/>
<line fill="none" stroke="#6D6E71" stroke-miterlimit="10" x1="15" y1="25" x2="15" y2="43"/>
<line fill="none" stroke="#6D6E71" stroke-miterlimit="10" x1="11" y1="32" x2="11" y2="43"/>
<line fill="none" stroke="#6D6E71" stroke-miterlimit="10" x1="7" y1="37" x2="7" y2="43"/>
<line fill="none" stroke="#6D6E71" stroke-miterlimit="10" x1="3" y1="39" x2="3" y2="43"/>
<line fill="none" stroke="#6D6E71" stroke-miterlimit="10" x1="45" y1="16" x2="45" y2="43"/>
<line fill="none" stroke="#6D6E71" stroke-miterlimit="10" x1="49" y1="25" x2="49" y2="43"/>
<line fill="none" stroke="#6D6E71" stroke-miterlimit="10" x1="53" y1="32" x2="53" y2="43"/>
<line fill="none" stroke="#6D6E71" stroke-miterlimit="10" x1="57" y1="37" x2="57" y2="43"/>
<line fill="none" stroke="#6D6E71" stroke-miterlimit="10" x1="61" y1="39" x2="61" y2="43"/>
<line fill="none" stroke="#6D6E71" stroke-miterlimit="10" x1="19" y1="16" x2="8" y2="16"/>
<line fill="none" stroke="#6D6E71" stroke-miterlimit="10" x1="6" y1="16" x2="4" y2="16"/>
<line fill="none" stroke="#6D6E71" stroke-miterlimit="10" x1="2" y1="16" x2="0" y2="16"/>
<line fill="none" stroke="#6D6E71" stroke-miterlimit="10" x1="32" y1="1" x2="56" y2="1"/>
<line fill="none" stroke="#6D6E71" stroke-miterlimit="10" x1="58" y1="1" x2="60" y2="1"/>
<line fill="none" stroke="#6D6E71" stroke-miterlimit="10" x1="62" y1="1" x2="64" y2="1"/>
</svg>
