<?xml version="1.0" encoding="utf-8"?>
<!-- Generator: Adobe Illustrator 18.0.0, SVG Export Plug-In . SVG Version: 6.00 Build 0)  -->
<!DOCTYPE svg PUBLIC "-//W3C//DTD SVG 1.1//EN" "http://www.w3.org/Graphics/SVG/1.1/DTD/svg11.dtd">
<svg version="1.1" id="Слой_1" xmlns="http://www.w3.org/2000/svg" xmlns:xlink="http://www.w3.org/1999/xlink" x="0px" y="0px"
	 viewBox="0 0 5000 5000" enable-background="new 0 0 5000 5000" xml:space="preserve">
<path fill="none" stroke="#6D6E71" stroke-miterlimit="10" d="M591.3,1084.4c0.5,1.7,1.4,3.1,2.5,4c0.9,0.7,1.8,1.1,2.8,1.1
	c0,0,0,0,0,0l3.6,7.7c0.2,0.4,0.4,0.8,0.7,1.2c5,6,6.4,6.3,8.4,6.1c0.2,0,0.3,0,0.5,0h1.2c0.2,0,0.4,0,0.5,0c0.2,0,0.4,0,0.6,0
	c1.7,0,3.3-0.8,7.8-6.1c0.3-0.4,0.5-0.8,0.7-1.2l3.6-7.8c1,0,2-0.4,2.9-1.1c1.1-0.9,1.9-2.3,2.4-4c0.5-1.6,0.6-3.4,0.3-4.9
	c-0.2-1.1-0.6-2-1.2-2.6c0.2-2.4,0.7-10.9-4.4-16.2c-3.3-3.5-8.3-4.9-14.6-4.2c-0.2,0-6,0.6-9.2,2.6c-0.2,0.1-0.4,0.3-0.7,0.4
	c-3.2,1.9-9,5.4-7.2,17.3C590.7,1078.1,590.4,1081.6,591.3,1084.4z M600.7,1061.3c0.3-0.2,0.5-0.3,0.7-0.5c2.8-1.7,8.2-2.2,8.2-2.3
	c5.7-0.6,10,0.6,12.9,3.5c4.2,4.4,4.1,11.6,3.9,14.1c-0.2,0.1-0.4,0.3-0.4,0.6c-0.2,0.6,0.1,1.2,0.7,1.3c0.4,0.1,0.8,0.8,1,1.7
	c0.2,1.1,0.1,2.6-0.3,3.9c-0.4,1.3-1,2.3-1.8,3c-0.3,0.3-1,0.8-1.7,0.5c-0.5-0.2-1.1,0-1.4,0.6l-3.9,8.5c-0.1,0.3-0.3,0.5-0.5,0.7
	c-4.5,5.5-5.5,5.4-6.6,5.3c-0.2,0-0.4,0-0.7,0h-1.2c-0.2,0-0.5,0-0.7,0c-1.1,0.1-2,0.1-6.6-5.3c-0.2-0.2-0.3-0.5-0.5-0.7l-3.9-8.4
	c-0.2-0.5-0.8-0.7-1.3-0.6c-0.7,0.2-1.3-0.3-1.7-0.6c-0.8-0.6-1.4-1.7-1.8-3c-0.9-2.8-0.2-5.3,0.6-5.5c0,0,0.1,0,0.1,0
	c0.6-0.1,0.9-0.7,0.8-1.3c0-0.2-0.2-0.4-0.3-0.5C592.9,1065.9,597.8,1063,600.7,1061.3z"/>
<path fill="none" stroke="#6D6E71" stroke-miterlimit="10" d="M620.8,1108l-10.4,14.7L600,1108c-0.3-0.4-0.8-0.5-1.2-0.4l-13.4,4.1
	c-0.7,0.1-5.5,1.2-7.2,6.1c-0.3,0.9-0.5,2.1-0.7,3.2c-0.1,0.6,0.3,1.1,0.9,1.2c0.6,0.1,1.1-0.3,1.2-0.9c0.1-1,0.4-2,0.6-2.8
	c1.4-3.9,5.4-4.7,5.6-4.7c0.1,0,0.1,0,0.1,0l12.7-3.9l10.8,15.3c0.2,0.3,0.5,0.4,0.9,0.5c0.4,0,0.7-0.2,0.9-0.5l10.9-15.3l12.7,3.9
	c0,0,0.1,0,0.1,0c0.2,0,4.2,0.7,5.6,4.6c0.3,0.9,0.4,1.9,0.6,2.9c0.1,0.6,0.6,1,1.2,0.9c0.6-0.1,1-0.6,0.9-1.2
	c-0.2-1-0.3-2.1-0.7-3.2c-1.7-4.9-6.5-6-7.2-6.1l-13.4-4.1C621.6,1107.5,621.1,1107.7,620.8,1108z"/>
<path fill="none" stroke="#6D6E71" stroke-miterlimit="10" d="M569.4,1107.8l1.9,4.1c0.1,0.3,0.3,0.5,0.5,0.7
	c1.9,2.3,2.9,3.1,3.7,3.4c0.2-0.6,0.5-1.1,0.8-1.6c-0.5,0-1.1-0.3-3.2-2.9c-0.1-0.1-0.2-0.2-0.2-0.3l-2.2-4.7
	c-0.2-0.4-0.6-0.6-1.1-0.5c-0.4,0.1-1.2-0.5-1.6-1.8c-0.2-0.7-0.3-1.4-0.2-2c0.1-0.5,0.3-0.7,0.3-0.7c0,0,0.1,0,0.1,0
	c0.5-0.1,0.7-0.6,0.6-1c0-0.1-0.1-0.3-0.2-0.4c-0.8-5.6,1.8-7.1,3.3-8.1c0.2-0.1,0.3-0.2,0.4-0.3c1.2-0.8,3.6-1.1,4.5-1.2
	c3.1-0.3,5.4,0.3,6.9,1.9c2.2,2.3,2.2,6.1,2.1,7.5c-0.1,0.1-0.2,0.2-0.2,0.4c-0.1,0.5,0.1,0.9,0.6,1.1c0,0,0,0,0,0c0,0,0,0,0,0
	c0.3,0.1,0.6,1.3,0.2,2.7c-0.4,1.3-1.2,1.9-1.6,1.8c-0.4-0.2-0.9,0-1.1,0.4l-1.3,2.8c0.8-0.3,1.5-0.5,2.2-0.7l0,0l0.4-0.8
	c1.3-0.1,2.5-1.2,3-3c0.5-1.5,0.4-3.4-0.5-4.3c0.1-1.5,0.3-6.1-2.6-9.1c-1.9-2-4.7-2.8-8.4-2.4c-0.1,0-3.4,0.3-5.2,1.5
	c-0.1,0.1-0.2,0.2-0.4,0.2c-1.7,1-5.1,3.1-4.2,9.8c-0.4,0.4-0.6,0.9-0.8,1.6c-0.2,0.9-0.1,1.9,0.2,2.9
	C567,1106.6,568.2,1107.8,569.4,1107.8z"/>
<path fill="none" stroke="#6D6E71" stroke-miterlimit="10" d="M570.8,1117.4l-7.4,2.3c-0.5,0.1-3.2,0.7-4.2,3.6
	c-0.2,0.5-0.3,1.2-0.4,1.8c0,0,0,0,0,0c0,0.1,0,0.1,0,0.2c0,0.1,0,0.1,0,0.2c0,0.1,0,0.1,0.1,0.1c0,0.1,0.1,0.1,0.1,0.2c0,0,0,0,0,0
	l1.6-0.9c0.1-0.4,0.2-0.8,0.3-1.1c0.7-2,2.8-2.4,2.9-2.4c0,0,0.1,0,0.1,0l6.9-2.1l3.2,4.6c0.2-1,0.3-2.5,0.3-2.5l-2.5-3.6
	C571.5,1117.4,571.2,1117.3,570.8,1117.4z"/>
<path fill="none" stroke="#6D6E71" stroke-miterlimit="10" d="M551.5,1116.2c0.3,1.1,1.1,1.9,1.9,2l1.1,2.3c0.1,0.2,0.2,0.4,0.3,0.5
	c0.5,0.6,0.8,1,1.2,1.3c0,0,0,0,0,0l0.1-0.2c0.2-0.6,0.4-1.1,0.7-1.5c-0.2-0.2-0.4-0.4-0.6-0.7c0,0-0.1-0.1-0.1-0.1l-1.3-2.8
	c-0.2-0.4-0.6-0.6-1-0.5c-0.1,0-0.4-0.3-0.6-0.8c-0.2-0.6-0.1-1.1,0-1.2c0.4-0.1,0.6-0.6,0.5-1c0-0.1-0.1-0.2-0.1-0.3
	c-0.4-3.1,0.9-3.9,1.8-4.4l0.3-0.2c0.7-0.4,2-0.6,2.5-0.7c1.7-0.2,3,0.2,3.9,1c1.2,1.2,1.2,3.3,1.2,4.2c-0.1,0.1-0.1,0.2-0.1,0.2
	c-0.1,0.4,0.1,0.9,0.5,1c0.1,0.2,0.2,0.7,0,1.3c-0.1,0.2-0.1,0.4-0.2,0.5l2-0.6c0.1-0.8,0-1.6-0.4-2.2c0.1-1.1,0.1-3.8-1.6-5.6
	c-1.2-1.3-3-1.8-5.3-1.5c-0.2,0-2.1,0.2-3.3,0.9l-0.2,0.1c-1.1,0.6-3.2,1.9-2.7,6C551.2,1113.9,551.1,1115.1,551.5,1116.2z"/>
<path fill="none" stroke="#6D6E71" stroke-miterlimit="10" d="M546.9,1128.4c0,0.1,0,0.1,0,0.2c0,0,0,0.1,0.1,0.1
	c0,0.1,0.1,0.1,0.1,0.2c0,0,0,0,0,0l1.6-0.9c0-0.2,0.1-0.3,0.1-0.4c0.4-1,1.4-1.2,1.5-1.2c0,0,0.1,0,0.1,0l3.9-1.2l0.9,1.3l0.3-1.8
	c0-0.2,0.1-0.4,0.1-0.6l-0.2-0.3c-0.2-0.3-0.6-0.4-1-0.3l-4.4,1.4c-0.4,0.1-2.1,0.5-2.8,2.4c-0.1,0.3-0.2,0.8-0.3,1.1c0,0,0,0,0,0
	C546.9,1128.2,546.9,1128.3,546.9,1128.4z"/>
</svg>
