<?xml version="1.0" encoding="utf-8"?>
<!-- Generator: Adobe Illustrator 18.0.0, SVG Export Plug-In . SVG Version: 6.00 Build 0)  -->
<!DOCTYPE svg PUBLIC "-//W3C//DTD SVG 1.1//EN" "http://www.w3.org/Graphics/SVG/1.1/DTD/svg11.dtd">
<svg version="1.1" id="chart1" xmlns="http://www.w3.org/2000/svg" xmlns:xlink="http://www.w3.org/1999/xlink" x="0px" y="0px"
	 viewBox="0 0 960 500" enable-background="new 0 0 960 500" xml:space="preserve">
<rect x="-19" y="-28.5" fill="none" stroke="#494949" stroke-miterlimit="10" width="960" height="500"/>
<line fill="none" stroke="#494949" stroke-miterlimit="10" x1="310.2" y1="378.2" x2="342.3" y2="303.2"/>
<line fill="none" stroke="#494949" stroke-miterlimit="10" x1="385.4" y1="308.4" x2="342.3" y2="303.2"/>
<line fill="none" stroke="#494949" stroke-miterlimit="10" x1="365.7" y1="265" x2="342.3" y2="303.2"/>
<line fill="none" stroke="#494949" stroke-miterlimit="10" x1="365.7" y1="265" x2="385.4" y2="308.4"/>
<line fill="none" stroke="#494949" stroke-miterlimit="10" x1="270" y1="339.1" x2="342.3" y2="303.2"/>
<line fill="none" stroke="#494949" stroke-miterlimit="10" x1="254.8" y1="304.1" x2="342.3" y2="303.2"/>
<line fill="none" stroke="#494949" stroke-miterlimit="10" x1="299.3" y1="398.9" x2="342.3" y2="303.2"/>
<line fill="none" stroke="#494949" stroke-miterlimit="10" x1="239.1" y1="323.9" x2="342.3" y2="303.2"/>
<line fill="none" stroke="#494949" stroke-miterlimit="10" x1="252.6" y1="362.2" x2="342.3" y2="303.2"/>
<line fill="none" stroke="#494949" stroke-miterlimit="10" x1="280.1" y1="371.8" x2="342.3" y2="303.2"/>
<line fill="none" stroke="#494949" stroke-miterlimit="10" x1="473" y1="219.3" x2="572.3" y2="235"/>
<line fill="none" stroke="#494949" stroke-miterlimit="10" x1="473" y1="219.3" x2="365.7" y2="265"/>
<line fill="none" stroke="#494949" stroke-miterlimit="10" x1="473" y1="219.3" x2="385.4" y2="308.4"/>
<line fill="none" stroke="#494949" stroke-miterlimit="10" x1="473" y1="219.3" x2="342.3" y2="303.2"/>
<line fill="none" stroke="#494949" stroke-miterlimit="10" x1="471.5" y1="323.2" x2="473" y2="219.3"/>
<line fill="none" stroke="#494949" stroke-miterlimit="10" x1="370.7" y1="201.3" x2="473" y2="219.3"/>
<line fill="none" stroke="#494949" stroke-miterlimit="10" x1="450" y1="313.2" x2="473" y2="219.3"/>
<line fill="none" stroke="#494949" stroke-miterlimit="10" x1="356" y1="221.6" x2="473" y2="219.3"/>
<line fill="none" stroke="#494949" stroke-miterlimit="10" x1="493.3" y1="417.3" x2="495" y2="335.1"/>
<line fill="none" stroke="#494949" stroke-miterlimit="10" x1="493.9" y1="394.7" x2="495" y2="335.1"/>
<line fill="none" stroke="#494949" stroke-miterlimit="10" x1="493.9" y1="394.7" x2="493.3" y2="417.3"/>
<line fill="none" stroke="#494949" stroke-miterlimit="10" x1="521.2" y1="390.7" x2="495" y2="335.1"/>
<line fill="none" stroke="#494949" stroke-miterlimit="10" x1="521.2" y1="390.7" x2="493.3" y2="417.3"/>
<line fill="none" stroke="#494949" stroke-miterlimit="10" x1="521.2" y1="390.7" x2="493.9" y2="394.7"/>
<line fill="none" stroke="#494949" stroke-miterlimit="10" x1="548.1" y1="389.6" x2="495" y2="335.1"/>
<line fill="none" stroke="#494949" stroke-miterlimit="10" x1="548.1" y1="389.6" x2="493.3" y2="417.3"/>
<line fill="none" stroke="#494949" stroke-miterlimit="10" x1="548.1" y1="389.6" x2="493.9" y2="394.7"/>
<line fill="none" stroke="#494949" stroke-miterlimit="10" x1="548.1" y1="389.6" x2="521.2" y2="390.7"/>
<line fill="none" stroke="#494949" stroke-miterlimit="10" x1="543.4" y1="414.6" x2="495" y2="335.1"/>
<line fill="none" stroke="#494949" stroke-miterlimit="10" x1="543.4" y1="414.6" x2="493.3" y2="417.3"/>
<line fill="none" stroke="#494949" stroke-miterlimit="10" x1="543.4" y1="414.6" x2="493.9" y2="394.7"/>
<line fill="none" stroke="#494949" stroke-miterlimit="10" x1="543.4" y1="414.6" x2="521.2" y2="390.7"/>
<line fill="none" stroke="#494949" stroke-miterlimit="10" x1="543.4" y1="414.6" x2="548.1" y2="389.6"/>
<line fill="none" stroke="#494949" stroke-miterlimit="10" x1="518.8" y1="425.9" x2="495" y2="335.1"/>
<line fill="none" stroke="#494949" stroke-miterlimit="10" x1="518.8" y1="425.9" x2="493.3" y2="417.3"/>
<line fill="none" stroke="#494949" stroke-miterlimit="10" x1="518.8" y1="425.9" x2="493.9" y2="394.7"/>
<line fill="none" stroke="#494949" stroke-miterlimit="10" x1="518.8" y1="425.9" x2="521.2" y2="390.7"/>
<line fill="none" stroke="#494949" stroke-miterlimit="10" x1="518.8" y1="425.9" x2="548.1" y2="389.6"/>
<line fill="none" stroke="#494949" stroke-miterlimit="10" x1="518.8" y1="425.9" x2="543.4" y2="414.6"/>
<line fill="none" stroke="#494949" stroke-miterlimit="10" x1="516.5" y1="315.8" x2="495" y2="335.1"/>
<line fill="none" stroke="#494949" stroke-miterlimit="10" x1="516.5" y1="315.8" x2="493.3" y2="417.3"/>
<line fill="none" stroke="#494949" stroke-miterlimit="10" x1="516.5" y1="315.8" x2="493.9" y2="394.7"/>
<line fill="none" stroke="#494949" stroke-miterlimit="10" x1="516.5" y1="315.8" x2="521.2" y2="390.7"/>
<line fill="none" stroke="#494949" stroke-miterlimit="10" x1="516.5" y1="315.8" x2="548.1" y2="389.6"/>
<line fill="none" stroke="#494949" stroke-miterlimit="10" x1="516.5" y1="315.8" x2="543.4" y2="414.6"/>
<line fill="none" stroke="#494949" stroke-miterlimit="10" x1="516.5" y1="315.8" x2="518.8" y2="425.9"/>
<line fill="none" stroke="#494949" stroke-miterlimit="10" x1="516.5" y1="315.8" x2="471.5" y2="323.2"/>
<line fill="none" stroke="#494949" stroke-miterlimit="10" x1="516.5" y1="315.8" x2="473" y2="219.3"/>
<line fill="none" stroke="#494949" stroke-miterlimit="10" x1="510.9" y1="233.8" x2="516.5" y2="315.8"/>
<line fill="none" stroke="#494949" stroke-miterlimit="10" x1="510.9" y1="233.8" x2="473" y2="219.3"/>
<line fill="none" stroke="#494949" stroke-miterlimit="10" x1="500.1" y1="197.6" x2="510.9" y2="233.8"/>
<line fill="none" stroke="#494949" stroke-miterlimit="10" x1="500.1" y1="197.6" x2="516.5" y2="315.8"/>
<line fill="none" stroke="#494949" stroke-miterlimit="10" x1="500.1" y1="197.6" x2="473" y2="219.3"/>
<line fill="none" stroke="#494949" stroke-miterlimit="10" x1="449.5" y1="218.4" x2="510.9" y2="233.8"/>
<line fill="none" stroke="#494949" stroke-miterlimit="10" x1="449.5" y1="218.4" x2="473" y2="219.3"/>
<line fill="none" stroke="#494949" stroke-miterlimit="10" x1="449.5" y1="218.4" x2="495" y2="335.1"/>
<line fill="none" stroke="#494949" stroke-miterlimit="10" x1="449.5" y1="218.4" x2="500.1" y2="197.6"/>
<line fill="none" stroke="#494949" stroke-miterlimit="10" x1="524.4" y1="217.2" x2="473" y2="219.3"/>
<line fill="none" stroke="#494949" stroke-miterlimit="10" x1="524.4" y1="217.2" x2="516.5" y2="315.8"/>
<line fill="none" stroke="#494949" stroke-miterlimit="10" x1="524.4" y1="217.2" x2="500.1" y2="197.6"/>
<line fill="none" stroke="#494949" stroke-miterlimit="10" x1="524.4" y1="217.2" x2="510.9" y2="233.8"/>
<line fill="none" stroke="#494949" stroke-miterlimit="10" x1="524.4" y1="217.2" x2="449.5" y2="218.4"/>
<line fill="none" stroke="#494949" stroke-miterlimit="10" x1="572.7" y1="261.7" x2="473" y2="219.3"/>
<line fill="none" stroke="#494949" stroke-miterlimit="10" x1="572.7" y1="261.7" x2="524.4" y2="217.2"/>
<line fill="none" stroke="#494949" stroke-miterlimit="10" x1="465.8" y1="283.3" x2="516.5" y2="315.8"/>
<line fill="none" stroke="#494949" stroke-miterlimit="10" x1="465.8" y1="283.3" x2="524.4" y2="217.2"/>
<line fill="none" stroke="#494949" stroke-miterlimit="10" x1="465.8" y1="283.3" x2="473" y2="219.3"/>
<line fill="none" stroke="#494949" stroke-miterlimit="10" x1="579.7" y1="350.5" x2="516.5" y2="315.8"/>
<line fill="none" stroke="#494949" stroke-miterlimit="10" x1="539.8" y1="280.7" x2="579.7" y2="350.5"/>
<line fill="none" stroke="#494949" stroke-miterlimit="10" x1="539.8" y1="280.7" x2="473" y2="219.3"/>
<line fill="none" stroke="#494949" stroke-miterlimit="10" x1="539.8" y1="280.7" x2="516.5" y2="315.8"/>
<line fill="none" stroke="#494949" stroke-miterlimit="10" x1="539.8" y1="280.7" x2="524.4" y2="217.2"/>
<line fill="none" stroke="#494949" stroke-miterlimit="10" x1="376.2" y1="237.4" x2="473" y2="219.3"/>
<line fill="none" stroke="#494949" stroke-miterlimit="10" x1="548.2" y1="258.2" x2="473" y2="219.3"/>
<line fill="none" stroke="#494949" stroke-miterlimit="10" x1="548.2" y1="258.2" x2="524.4" y2="217.2"/>
<line fill="none" stroke="#494949" stroke-miterlimit="10" x1="433.2" y1="295.2" x2="473" y2="219.3"/>
<line fill="none" stroke="#494949" stroke-miterlimit="10" x1="433.2" y1="295.2" x2="465.8" y2="283.3"/>
<line fill="none" stroke="#494949" stroke-miterlimit="10" x1="424" y1="266.2" x2="473" y2="219.3"/>
<line fill="none" stroke="#494949" stroke-miterlimit="10" x1="424" y1="266.2" x2="433.2" y2="295.2"/>
<line fill="none" stroke="#494949" stroke-miterlimit="10" x1="424" y1="266.2" x2="465.8" y2="283.3"/>
<line fill="none" stroke="#494949" stroke-miterlimit="10" x1="404.8" y1="298.9" x2="433.2" y2="295.2"/>
<line fill="none" stroke="#494949" stroke-miterlimit="10" x1="404.8" y1="298.9" x2="424" y2="266.2"/>
<line fill="none" stroke="#494949" stroke-miterlimit="10" x1="404.8" y1="298.9" x2="473" y2="219.3"/>
<line fill="none" stroke="#494949" stroke-miterlimit="10" x1="404.8" y1="298.9" x2="465.8" y2="283.3"/>
<line fill="none" stroke="#494949" stroke-miterlimit="10" x1="398.9" y1="272.7" x2="433.2" y2="295.2"/>
<line fill="none" stroke="#494949" stroke-miterlimit="10" x1="398.9" y1="272.7" x2="424" y2="266.2"/>
<line fill="none" stroke="#494949" stroke-miterlimit="10" x1="398.9" y1="272.7" x2="404.8" y2="298.9"/>
<line fill="none" stroke="#494949" stroke-miterlimit="10" x1="398.9" y1="272.7" x2="473" y2="219.3"/>
<line fill="none" stroke="#494949" stroke-miterlimit="10" x1="398.9" y1="272.7" x2="465.8" y2="283.3"/>
<line fill="none" stroke="#494949" stroke-miterlimit="10" x1="426.1" y1="320.7" x2="433.2" y2="295.2"/>
<line fill="none" stroke="#494949" stroke-miterlimit="10" x1="426.1" y1="320.7" x2="424" y2="266.2"/>
<line fill="none" stroke="#494949" stroke-miterlimit="10" x1="426.1" y1="320.7" x2="404.8" y2="298.9"/>
<line fill="none" stroke="#494949" stroke-miterlimit="10" x1="426.1" y1="320.7" x2="398.9" y2="272.7"/>
<line fill="none" stroke="#494949" stroke-miterlimit="10" x1="426.1" y1="320.7" x2="473" y2="219.3"/>
<line fill="none" stroke="#494949" stroke-miterlimit="10" x1="426.1" y1="320.7" x2="465.8" y2="283.3"/>
<line fill="none" stroke="#494949" stroke-miterlimit="10" x1="410.9" y1="136" x2="500.1" y2="197.6"/>
<line fill="none" stroke="#494949" stroke-miterlimit="10" x1="602.9" y1="199" x2="500.1" y2="197.6"/>
<line fill="none" stroke="#494949" stroke-miterlimit="10" x1="521.7" y1="142.3" x2="510.9" y2="233.8"/>
<line fill="none" stroke="#494949" stroke-miterlimit="10" x1="521.7" y1="142.3" x2="500.1" y2="197.6"/>
<line fill="none" stroke="#494949" stroke-miterlimit="10" x1="470.4" y1="178.6" x2="521.7" y2="142.3"/>
<line fill="none" stroke="#494949" stroke-miterlimit="10" x1="470.4" y1="178.6" x2="500.1" y2="197.6"/>
<line fill="none" stroke="#494949" stroke-miterlimit="10" x1="470.4" y1="178.6" x2="510.9" y2="233.8"/>
<line fill="none" stroke="#494949" stroke-miterlimit="10" x1="480.9" y1="264.7" x2="473" y2="219.3"/>
<line fill="none" stroke="#494949" stroke-miterlimit="10" x1="480.9" y1="264.7" x2="449.5" y2="218.4"/>
<line fill="none" stroke="#494949" stroke-miterlimit="10" x1="480.9" y1="264.7" x2="524.4" y2="217.2"/>
<line fill="none" stroke="#494949" stroke-miterlimit="10" x1="546.8" y1="301" x2="572.7" y2="261.7"/>
<line fill="none" stroke="#494949" stroke-miterlimit="10" x1="546.8" y1="301" x2="473" y2="219.3"/>
<line fill="none" stroke="#494949" stroke-miterlimit="10" x1="653.4" y1="299.3" x2="572.7" y2="261.7"/>
<line fill="none" stroke="#494949" stroke-miterlimit="10" x1="596.8" y1="74.9" x2="662.1" y2="33.6"/>
<line fill="none" stroke="#494949" stroke-miterlimit="10" x1="505.9" y1="129.3" x2="596.8" y2="74.9"/>
<line fill="none" stroke="#494949" stroke-miterlimit="10" x1="505.9" y1="129.3" x2="500.1" y2="197.6"/>
<line fill="none" stroke="#494949" stroke-miterlimit="10" x1="505.9" y1="129.3" x2="524.4" y2="217.2"/>
<line fill="none" stroke="#494949" stroke-miterlimit="10" x1="505.9" y1="129.3" x2="473" y2="219.3"/>
<line fill="none" stroke="#494949" stroke-miterlimit="10" x1="420" y1="173" x2="449.5" y2="218.4"/>
<line fill="none" stroke="#494949" stroke-miterlimit="10" x1="420" y1="173" x2="473" y2="219.3"/>
<line fill="none" stroke="#494949" stroke-miterlimit="10" x1="422.7" y1="223.6" x2="420" y2="173"/>
<line fill="none" stroke="#494949" stroke-miterlimit="10" x1="422.7" y1="223.6" x2="510.9" y2="233.8"/>
<line fill="none" stroke="#494949" stroke-miterlimit="10" x1="394.9" y1="180.3" x2="420" y2="173"/>
<line fill="none" stroke="#494949" stroke-miterlimit="10" x1="394.9" y1="180.3" x2="449.5" y2="218.4"/>
<line fill="none" stroke="#494949" stroke-miterlimit="10" x1="394.9" y1="180.3" x2="473" y2="219.3"/>
<line fill="none" stroke="#494949" stroke-miterlimit="10" x1="327.3" y1="126.5" x2="394.9" y2="180.3"/>
<line fill="none" stroke="#494949" stroke-miterlimit="10" x1="327.3" y1="126.5" x2="410.9" y2="136"/>
<line fill="none" stroke="#494949" stroke-miterlimit="10" x1="292.7" y1="168.2" x2="394.9" y2="180.3"/>
<line fill="none" stroke="#494949" stroke-miterlimit="10" x1="385.4" y1="149.8" x2="394.9" y2="180.3"/>
<line fill="none" stroke="#494949" stroke-miterlimit="10" x1="385.4" y1="149.8" x2="420" y2="173"/>
<line fill="none" stroke="#494949" stroke-miterlimit="10" x1="385.4" y1="149.8" x2="449.5" y2="218.4"/>
<line fill="none" stroke="#494949" stroke-miterlimit="10" x1="463.9" y1="143.7" x2="394.9" y2="180.3"/>
<line fill="none" stroke="#494949" stroke-miterlimit="10" x1="463.9" y1="143.7" x2="420" y2="173"/>
<line fill="none" stroke="#494949" stroke-miterlimit="10" x1="463.9" y1="143.7" x2="410.9" y2="136"/>
<line fill="none" stroke="#494949" stroke-miterlimit="10" x1="463.9" y1="143.7" x2="385.4" y2="149.8"/>
<line fill="none" stroke="#494949" stroke-miterlimit="10" x1="463.9" y1="143.7" x2="449.5" y2="218.4"/>
<line fill="none" stroke="#494949" stroke-miterlimit="10" x1="463.9" y1="143.7" x2="473" y2="219.3"/>
<line fill="none" stroke="#494949" stroke-miterlimit="10" x1="463.9" y1="143.7" x2="495" y2="335.1"/>
<line fill="none" stroke="#494949" stroke-miterlimit="10" x1="463.9" y1="143.7" x2="500.1" y2="197.6"/>
<line fill="none" stroke="#494949" stroke-miterlimit="10" x1="463.9" y1="143.7" x2="521.7" y2="142.3"/>
<line fill="none" stroke="#494949" stroke-miterlimit="10" x1="463.9" y1="143.7" x2="505.9" y2="129.3"/>
<line fill="none" stroke="#494949" stroke-miterlimit="10" x1="382.8" y1="113.3" x2="420" y2="173"/>
<line fill="none" stroke="#494949" stroke-miterlimit="10" x1="382.8" y1="113.3" x2="463.9" y2="143.7"/>
<line fill="none" stroke="#494949" stroke-miterlimit="10" x1="452.8" y1="93.6" x2="463.9" y2="143.7"/>
<line fill="none" stroke="#494949" stroke-miterlimit="10" x1="452.8" y1="93.6" x2="521.7" y2="142.3"/>
<line fill="none" stroke="#494949" stroke-miterlimit="10" x1="452.8" y1="93.6" x2="505.9" y2="129.3"/>
<line fill="none" stroke="#494949" stroke-miterlimit="10" x1="510" y1="115.3" x2="463.9" y2="143.7"/>
<line fill="none" stroke="#494949" stroke-miterlimit="10" x1="510" y1="115.3" x2="505.9" y2="129.3"/>
<line fill="none" stroke="#494949" stroke-miterlimit="10" x1="510" y1="115.3" x2="524.4" y2="217.2"/>
<line fill="none" stroke="#494949" stroke-miterlimit="10" x1="510" y1="115.3" x2="452.8" y2="93.6"/>
<line fill="none" stroke="#494949" stroke-miterlimit="10" x1="510" y1="115.3" x2="473" y2="219.3"/>
<line fill="none" stroke="#494949" stroke-miterlimit="10" x1="461.3" y1="70.9" x2="510" y2="115.3"/>
<line fill="none" stroke="#494949" stroke-miterlimit="10" x1="461.3" y1="70.9" x2="463.9" y2="143.7"/>
<line fill="none" stroke="#494949" stroke-miterlimit="10" x1="461.3" y1="70.9" x2="505.9" y2="129.3"/>
<line fill="none" stroke="#494949" stroke-miterlimit="10" x1="461.3" y1="70.9" x2="452.8" y2="93.6"/>
<line fill="none" stroke="#494949" stroke-miterlimit="10" x1="536.9" y1="74.7" x2="505.9" y2="129.3"/>
<line fill="none" stroke="#494949" stroke-miterlimit="10" x1="536.9" y1="74.7" x2="510" y2="115.3"/>
<line fill="none" stroke="#494949" stroke-miterlimit="10" x1="536.9" y1="74.7" x2="461.3" y2="70.9"/>
<line fill="none" stroke="#494949" stroke-miterlimit="10" x1="515.1" y1="86.7" x2="505.9" y2="129.3"/>
<line fill="none" stroke="#494949" stroke-miterlimit="10" x1="515.1" y1="86.7" x2="510" y2="115.3"/>
<line fill="none" stroke="#494949" stroke-miterlimit="10" x1="515.1" y1="86.7" x2="536.9" y2="74.7"/>
<line fill="none" stroke="#494949" stroke-miterlimit="10" x1="515.1" y1="86.7" x2="461.3" y2="70.9"/>
<line fill="none" stroke="#494949" stroke-miterlimit="10" x1="515.1" y1="86.7" x2="452.8" y2="93.6"/>
<line fill="none" stroke="#494949" stroke-miterlimit="10" x1="515.1" y1="86.7" x2="463.9" y2="143.7"/>
<line fill="none" stroke="#494949" stroke-miterlimit="10" x1="489.8" y1="84.6" x2="463.9" y2="143.7"/>
<line fill="none" stroke="#494949" stroke-miterlimit="10" x1="489.8" y1="84.6" x2="510" y2="115.3"/>
<line fill="none" stroke="#494949" stroke-miterlimit="10" x1="489.8" y1="84.6" x2="461.3" y2="70.9"/>
<line fill="none" stroke="#494949" stroke-miterlimit="10" x1="489.8" y1="84.6" x2="505.9" y2="129.3"/>
<line fill="none" stroke="#494949" stroke-miterlimit="10" x1="489.8" y1="84.6" x2="452.8" y2="93.6"/>
<line fill="none" stroke="#494949" stroke-miterlimit="10" x1="489.8" y1="84.6" x2="521.7" y2="142.3"/>
<line fill="none" stroke="#494949" stroke-miterlimit="10" x1="489.8" y1="84.6" x2="515.1" y2="86.7"/>
<line fill="none" stroke="#494949" stroke-miterlimit="10" x1="489.8" y1="84.6" x2="536.9" y2="74.7"/>
<line fill="none" stroke="#494949" stroke-miterlimit="10" x1="500.1" y1="65.6" x2="461.3" y2="70.9"/>
<line fill="none" stroke="#494949" stroke-miterlimit="10" x1="500.1" y1="65.6" x2="505.9" y2="129.3"/>
<line fill="none" stroke="#494949" stroke-miterlimit="10" x1="500.1" y1="65.6" x2="489.8" y2="84.6"/>
<line fill="none" stroke="#494949" stroke-miterlimit="10" x1="500.1" y1="65.6" x2="452.8" y2="93.6"/>
<line fill="none" stroke="#494949" stroke-miterlimit="10" x1="500.1" y1="65.6" x2="510" y2="115.3"/>
<line fill="none" stroke="#494949" stroke-miterlimit="10" x1="500.1" y1="65.6" x2="515.1" y2="86.7"/>
<line fill="none" stroke="#494949" stroke-miterlimit="10" x1="500.1" y1="65.6" x2="536.9" y2="74.7"/>
<line fill="none" stroke="#494949" stroke-miterlimit="10" x1="500.1" y1="65.6" x2="463.9" y2="143.7"/>
<line fill="none" stroke="#494949" stroke-miterlimit="10" x1="478.4" y1="108.9" x2="463.9" y2="143.7"/>
<line fill="none" stroke="#494949" stroke-miterlimit="10" x1="478.4" y1="108.9" x2="489.8" y2="84.6"/>
<line fill="none" stroke="#494949" stroke-miterlimit="10" x1="478.4" y1="108.9" x2="505.9" y2="129.3"/>
<line fill="none" stroke="#494949" stroke-miterlimit="10" x1="478.4" y1="108.9" x2="500.1" y2="65.6"/>
<line fill="none" stroke="#494949" stroke-miterlimit="10" x1="478.4" y1="108.9" x2="510" y2="115.3"/>
<line fill="none" stroke="#494949" stroke-miterlimit="10" x1="478.4" y1="108.9" x2="515.1" y2="86.7"/>
<line fill="none" stroke="#494949" stroke-miterlimit="10" x1="478.4" y1="108.9" x2="536.9" y2="74.7"/>
<line fill="none" stroke="#494949" stroke-miterlimit="10" x1="478.4" y1="108.9" x2="461.3" y2="70.9"/>
<line fill="none" stroke="#494949" stroke-miterlimit="10" x1="478.4" y1="108.9" x2="452.8" y2="93.6"/>
<line fill="none" stroke="#494949" stroke-miterlimit="10" x1="478.4" y1="108.9" x2="473" y2="219.3"/>
<line fill="none" stroke="#494949" stroke-miterlimit="10" x1="479.1" y1="58" x2="500.1" y2="65.6"/>
<line fill="none" stroke="#494949" stroke-miterlimit="10" x1="479.1" y1="58" x2="478.4" y2="108.9"/>
<line fill="none" stroke="#494949" stroke-miterlimit="10" x1="479.1" y1="58" x2="505.9" y2="129.3"/>
<line fill="none" stroke="#494949" stroke-miterlimit="10" x1="479.1" y1="58" x2="489.8" y2="84.6"/>
<line fill="none" stroke="#494949" stroke-miterlimit="10" x1="479.1" y1="58" x2="510" y2="115.3"/>
<line fill="none" stroke="#494949" stroke-miterlimit="10" x1="479.1" y1="58" x2="515.1" y2="86.7"/>
<line fill="none" stroke="#494949" stroke-miterlimit="10" x1="479.1" y1="58" x2="536.9" y2="74.7"/>
<line fill="none" stroke="#494949" stroke-miterlimit="10" x1="479.1" y1="58" x2="461.3" y2="70.9"/>
<line fill="none" stroke="#494949" stroke-miterlimit="10" x1="479.1" y1="58" x2="452.8" y2="93.6"/>
<line fill="none" stroke="#494949" stroke-miterlimit="10" x1="479.1" y1="58" x2="463.9" y2="143.7"/>
<line fill="none" stroke="#494949" stroke-miterlimit="10" x1="511.5" y1="43" x2="478.4" y2="108.9"/>
<line fill="none" stroke="#494949" stroke-miterlimit="10" x1="511.5" y1="43" x2="510" y2="115.3"/>
<line fill="none" stroke="#494949" stroke-miterlimit="10" x1="511.5" y1="43" x2="461.3" y2="70.9"/>
<line fill="none" stroke="#494949" stroke-miterlimit="10" x1="511.5" y1="43" x2="489.8" y2="84.6"/>
<line fill="none" stroke="#494949" stroke-miterlimit="10" x1="511.5" y1="43" x2="479.1" y2="58"/>
<line fill="none" stroke="#494949" stroke-miterlimit="10" x1="511.5" y1="43" x2="505.9" y2="129.3"/>
<line fill="none" stroke="#494949" stroke-miterlimit="10" x1="511.5" y1="43" x2="500.1" y2="65.6"/>
<line fill="none" stroke="#494949" stroke-miterlimit="10" x1="511.5" y1="43" x2="515.1" y2="86.7"/>
<line fill="none" stroke="#494949" stroke-miterlimit="10" x1="511.5" y1="43" x2="536.9" y2="74.7"/>
<line fill="none" stroke="#494949" stroke-miterlimit="10" x1="388.7" y1="21.7" x2="452.8" y2="93.6"/>
<line fill="none" stroke="#494949" stroke-miterlimit="10" x1="554.2" y1="192" x2="500.1" y2="197.6"/>
<line fill="none" stroke="#494949" stroke-miterlimit="10" x1="554.2" y1="192" x2="473" y2="219.3"/>
<line fill="none" stroke="#494949" stroke-miterlimit="10" x1="554.2" y1="192" x2="510.9" y2="233.8"/>
<line fill="none" stroke="#494949" stroke-miterlimit="10" x1="554.2" y1="192" x2="524.4" y2="217.2"/>
<line fill="none" stroke="#494949" stroke-miterlimit="10" x1="554.2" y1="192" x2="505.9" y2="129.3"/>
<line fill="none" stroke="#494949" stroke-miterlimit="10" x1="554.2" y1="192" x2="521.7" y2="142.3"/>
<line fill="none" stroke="#494949" stroke-miterlimit="10" x1="535.1" y1="189" x2="500.1" y2="197.6"/>
<line fill="none" stroke="#494949" stroke-miterlimit="10" x1="535.1" y1="189" x2="554.2" y2="192"/>
<line fill="none" stroke="#494949" stroke-miterlimit="10" x1="535.1" y1="189" x2="473" y2="219.3"/>
<line fill="none" stroke="#494949" stroke-miterlimit="10" x1="535.1" y1="189" x2="510.9" y2="233.8"/>
<line fill="none" stroke="#494949" stroke-miterlimit="10" x1="535.1" y1="189" x2="524.4" y2="217.2"/>
<line fill="none" stroke="#494949" stroke-miterlimit="10" x1="535.1" y1="189" x2="505.9" y2="129.3"/>
<line fill="none" stroke="#494949" stroke-miterlimit="10" x1="535.1" y1="189" x2="521.7" y2="142.3"/>
<line fill="none" stroke="#494949" stroke-miterlimit="10" x1="522.3" y1="173.7" x2="500.1" y2="197.6"/>
<line fill="none" stroke="#494949" stroke-miterlimit="10" x1="522.3" y1="173.7" x2="535.1" y2="189"/>
<line fill="none" stroke="#494949" stroke-miterlimit="10" x1="522.3" y1="173.7" x2="554.2" y2="192"/>
<line fill="none" stroke="#494949" stroke-miterlimit="10" x1="522.3" y1="173.7" x2="473" y2="219.3"/>
<line fill="none" stroke="#494949" stroke-miterlimit="10" x1="522.3" y1="173.7" x2="510.9" y2="233.8"/>
<line fill="none" stroke="#494949" stroke-miterlimit="10" x1="522.3" y1="173.7" x2="524.4" y2="217.2"/>
<line fill="none" stroke="#494949" stroke-miterlimit="10" x1="522.3" y1="173.7" x2="521.7" y2="142.3"/>
<line fill="none" stroke="#494949" stroke-miterlimit="10" x1="522.3" y1="173.7" x2="510" y2="115.3"/>
<line fill="none" stroke="#494949" stroke-miterlimit="10" x1="552.2" y1="165.4" x2="524.4" y2="217.2"/>
<line fill="none" stroke="#494949" stroke-miterlimit="10" x1="552.2" y1="165.4" x2="535.1" y2="189"/>
<line fill="none" stroke="#494949" stroke-miterlimit="10" x1="552.2" y1="165.4" x2="554.2" y2="192"/>
<line fill="none" stroke="#494949" stroke-miterlimit="10" x1="552.2" y1="165.4" x2="522.3" y2="173.7"/>
<line fill="none" stroke="#494949" stroke-miterlimit="10" x1="552.2" y1="165.4" x2="473" y2="219.3"/>
<line fill="none" stroke="#494949" stroke-miterlimit="10" x1="552.2" y1="165.4" x2="505.9" y2="129.3"/>
<line fill="none" stroke="#494949" stroke-miterlimit="10" x1="552.2" y1="165.4" x2="521.7" y2="142.3"/>
<line fill="none" stroke="#494949" stroke-miterlimit="10" x1="552.2" y1="165.4" x2="500.1" y2="197.6"/>
<line fill="none" stroke="#494949" stroke-miterlimit="10" x1="500.7" y1="260.8" x2="449.5" y2="218.4"/>
<line fill="none" stroke="#494949" stroke-miterlimit="10" x1="500.7" y1="260.8" x2="524.4" y2="217.2"/>
<line fill="none" stroke="#494949" stroke-miterlimit="10" x1="500.7" y1="260.8" x2="473" y2="219.3"/>
<line fill="none" stroke="#494949" stroke-miterlimit="10" x1="497.7" y1="18.1" x2="505.9" y2="129.3"/>
<line fill="none" stroke="#494949" stroke-miterlimit="10" x1="452.8" y1="31.7" x2="505.9" y2="129.3"/>
<line fill="none" stroke="#494949" stroke-miterlimit="10" x1="452.8" y1="31.7" x2="497.7" y2="18.1"/>
<line fill="none" stroke="#494949" stroke-miterlimit="10" x1="500.7" y1="161.6" x2="535.1" y2="189"/>
<line fill="none" stroke="#494949" stroke-miterlimit="10" x1="500.7" y1="161.6" x2="554.2" y2="192"/>
<line fill="none" stroke="#494949" stroke-miterlimit="10" x1="500.7" y1="161.6" x2="500.1" y2="197.6"/>
<line fill="none" stroke="#494949" stroke-miterlimit="10" x1="500.7" y1="161.6" x2="505.9" y2="129.3"/>
<line fill="none" stroke="#494949" stroke-miterlimit="10" x1="500.7" y1="161.6" x2="521.7" y2="142.3"/>
<line fill="none" stroke="#494949" stroke-miterlimit="10" x1="500.7" y1="161.6" x2="522.3" y2="173.7"/>
<line fill="none" stroke="#494949" stroke-miterlimit="10" x1="500.7" y1="161.6" x2="552.2" y2="165.4"/>
<line fill="none" stroke="#494949" stroke-miterlimit="10" x1="536.6" y1="60.1" x2="478.4" y2="108.9"/>
<line fill="none" stroke="#494949" stroke-miterlimit="10" x1="536.6" y1="60.1" x2="479.1" y2="58"/>
<line fill="none" stroke="#494949" stroke-miterlimit="10" x1="536.6" y1="60.1" x2="511.5" y2="43"/>
<line fill="none" stroke="#494949" stroke-miterlimit="10" x1="536.6" y1="60.1" x2="500.1" y2="65.6"/>
<line fill="none" stroke="#494949" stroke-miterlimit="10" x1="536.6" y1="60.1" x2="489.8" y2="84.6"/>
<line fill="none" stroke="#494949" stroke-miterlimit="10" x1="536.6" y1="60.1" x2="505.9" y2="129.3"/>
<line fill="none" stroke="#494949" stroke-miterlimit="10" x1="536.6" y1="60.1" x2="510" y2="115.3"/>
<circle fill="#1F77B4" stroke="#494949" stroke-width="1.5" cx="342.3" cy="303.2" r="4.5"/>
<circle fill="#1F77B4" stroke="#494949" stroke-width="1.5" cx="310.2" cy="378.2" r="4.5"/>
<circle fill="#1F77B4" stroke="#494949" stroke-width="1.5" cx="385.4" cy="308.4" r="4.5"/>
<circle fill="#1F77B4" stroke="#494949" stroke-width="1.5" cx="365.7" cy="265" r="4.5"/>
<circle fill="#1F77B4" stroke="#494949" stroke-width="1.5" cx="270" cy="339.1" r="4.5"/>
<circle fill="#1F77B4" stroke="#494949" stroke-width="1.5" cx="254.8" cy="304.1" r="4.5"/>
<circle fill="#1F77B4" stroke="#494949" stroke-width="1.5" cx="299.3" cy="398.9" r="4.5"/>
<circle fill="#1F77B4" stroke="#494949" stroke-width="1.5" cx="239.1" cy="323.9" r="4.5"/>
<circle fill="#1F77B4" stroke="#494949" stroke-width="1.5" cx="252.6" cy="362.2" r="4.5"/>
<circle fill="#1F77B4" stroke="#494949" stroke-width="1.5" cx="280.1" cy="371.8" r="4.5"/>
<circle fill="#AEC7E8" stroke="#494949" stroke-width="1.5" cx="572.3" cy="235" r="4.5"/>
<circle fill="#AEC7E8" stroke="#494949" stroke-width="1.5" cx="473" cy="219.3" r="4.5"/>
<circle fill="#FF7F0E" stroke="#494949" stroke-width="1.5" cx="471.5" cy="323.2" r="4.5"/>
<circle fill="#AEC7E8" stroke="#494949" stroke-width="1.5" cx="370.7" cy="201.3" r="4.5"/>
<circle fill="#AEC7E8" stroke="#494949" stroke-width="1.5" cx="450" cy="313.2" r="4.5"/>
<circle fill="#AEC7E8" stroke="#494949" stroke-width="1.5" cx="356" cy="221.6" r="4.5"/>
<circle fill="#FF7F0E" stroke="#494949" stroke-width="1.5" cx="495" cy="335.1" r="4.5"/>
<circle fill="#FF7F0E" stroke="#494949" stroke-width="1.5" cx="493.3" cy="417.3" r="4.5"/>
<circle fill="#FF7F0E" stroke="#494949" stroke-width="1.5" cx="493.9" cy="394.7" r="4.5"/>
<circle fill="#FF7F0E" stroke="#494949" stroke-width="1.5" cx="521.2" cy="390.7" r="4.5"/>
<circle fill="#FF7F0E" stroke="#494949" stroke-width="1.5" cx="548.1" cy="389.6" r="4.5"/>
<circle fill="#FF7F0E" stroke="#494949" stroke-width="1.5" cx="543.4" cy="414.6" r="4.5"/>
<circle fill="#FF7F0E" stroke="#494949" stroke-width="1.5" cx="518.8" cy="425.9" r="4.5"/>
<circle fill="#FF7F0E" stroke="#494949" stroke-width="1.5" cx="516.5" cy="315.8" r="4.5"/>
<circle fill="#FFBB78" stroke="#494949" stroke-width="1.5" cx="510.9" cy="233.8" r="4.5"/>
<circle fill="#FFBB78" stroke="#494949" stroke-width="1.5" cx="500.1" cy="197.6" r="4.5"/>
<circle fill="#2CA02C" stroke="#494949" stroke-width="1.5" cx="449.5" cy="218.4" r="4.5"/>
<circle fill="#FFBB78" stroke="#494949" stroke-width="1.5" cx="524.4" cy="217.2" r="4.5"/>
<circle fill="#98DF8A" stroke="#494949" stroke-width="1.5" cx="572.7" cy="261.7" r="4.5"/>
<circle fill="#AEC7E8" stroke="#494949" stroke-width="1.5" cx="465.8" cy="283.3" r="4.5"/>
<circle fill="#FF7F0E" stroke="#494949" stroke-width="1.5" cx="579.7" cy="350.5" r="4.5"/>
<circle fill="#AEC7E8" stroke="#494949" stroke-width="1.5" cx="539.8" cy="280.7" r="4.5"/>
<circle fill="#AEC7E8" stroke="#494949" stroke-width="1.5" cx="376.2" cy="237.4" r="4.5"/>
<circle fill="#AEC7E8" stroke="#494949" stroke-width="1.5" cx="548.2" cy="258.2" r="4.5"/>
<circle fill="#AEC7E8" stroke="#494949" stroke-width="1.5" cx="433.2" cy="295.2" r="4.5"/>
<circle fill="#AEC7E8" stroke="#494949" stroke-width="1.5" cx="424" cy="266.2" r="4.5"/>
<circle fill="#AEC7E8" stroke="#494949" stroke-width="1.5" cx="404.8" cy="298.9" r="4.5"/>
<circle fill="#AEC7E8" stroke="#494949" stroke-width="1.5" cx="398.9" cy="272.7" r="4.5"/>
<circle fill="#AEC7E8" stroke="#494949" stroke-width="1.5" cx="426.1" cy="320.7" r="4.5"/>
<circle fill="#FFBB78" stroke="#494949" stroke-width="1.5" cx="410.9" cy="136" r="4.5"/>
<circle fill="#D62728" stroke="#494949" stroke-width="1.5" cx="602.9" cy="199" r="4.5"/>
<circle fill="#FFBB78" stroke="#494949" stroke-width="1.5" cx="521.7" cy="142.3" r="4.5"/>
<circle fill="#FFBB78" stroke="#494949" stroke-width="1.5" cx="470.4" cy="178.6" r="4.5"/>
<circle fill="#2CA02C" stroke="#494949" stroke-width="1.5" cx="480.9" cy="264.7" r="4.5"/>
<circle fill="#98DF8A" stroke="#494949" stroke-width="1.5" cx="546.8" cy="301" r="4.5"/>
<circle fill="#98DF8A" stroke="#494949" stroke-width="1.5" cx="653.4" cy="299.3" r="4.5"/>
<circle fill="#FF9896" stroke="#494949" stroke-width="1.5" cx="662.1" cy="33.6" r="4.5"/>
<circle fill="#FF9896" stroke="#494949" stroke-width="1.5" cx="596.8" cy="74.9" r="4.5"/>
<circle fill="#9467BD" stroke="#494949" stroke-width="1.5" cx="505.9" cy="129.3" r="4.5"/>
<circle fill="#2CA02C" stroke="#494949" stroke-width="1.5" cx="420" cy="173" r="4.5"/>
<circle fill="#2CA02C" stroke="#494949" stroke-width="1.5" cx="422.7" cy="223.6" r="4.5"/>
<circle fill="#2CA02C" stroke="#494949" stroke-width="1.5" cx="394.9" cy="180.3" r="4.5"/>
<circle fill="#2CA02C" stroke="#494949" stroke-width="1.5" cx="327.3" cy="126.5" r="4.5"/>
<circle fill="#2CA02C" stroke="#494949" stroke-width="1.5" cx="292.7" cy="168.2" r="4.5"/>
<circle fill="#2CA02C" stroke="#494949" stroke-width="1.5" cx="385.4" cy="149.8" r="4.5"/>
<circle fill="#9467BD" stroke="#494949" stroke-width="1.5" cx="463.9" cy="143.7" r="4.5"/>
<circle fill="#2CA02C" stroke="#494949" stroke-width="1.5" cx="382.8" cy="113.3" r="4.5"/>
<circle fill="#9467BD" stroke="#494949" stroke-width="1.5" cx="452.8" cy="93.6" r="4.5"/>
<circle fill="#9467BD" stroke="#494949" stroke-width="1.5" cx="510" cy="115.3" r="4.5"/>
<circle fill="#9467BD" stroke="#494949" stroke-width="1.5" cx="461.3" cy="70.9" r="4.5"/>
<circle fill="#9467BD" stroke="#494949" stroke-width="1.5" cx="536.9" cy="74.7" r="4.5"/>
<circle fill="#9467BD" stroke="#494949" stroke-width="1.5" cx="515.1" cy="86.7" r="4.5"/>
<circle fill="#9467BD" stroke="#494949" stroke-width="1.5" cx="489.8" cy="84.6" r="4.5"/>
<circle fill="#9467BD" stroke="#494949" stroke-width="1.5" cx="500.1" cy="65.6" r="4.5"/>
<circle fill="#9467BD" stroke="#494949" stroke-width="1.5" cx="478.4" cy="108.9" r="4.5"/>
<circle fill="#9467BD" stroke="#494949" stroke-width="1.5" cx="479.1" cy="58" r="4.5"/>
<circle fill="#9467BD" stroke="#494949" stroke-width="1.5" cx="511.5" cy="43" r="4.5"/>
<circle fill="#C5B0D5" stroke="#494949" stroke-width="1.5" cx="388.7" cy="21.7" r="4.5"/>
<circle fill="#FFBB78" stroke="#494949" stroke-width="1.5" cx="554.2" cy="192" r="4.5"/>
<circle fill="#FFBB78" stroke="#494949" stroke-width="1.5" cx="535.1" cy="189" r="4.5"/>
<circle fill="#FFBB78" stroke="#494949" stroke-width="1.5" cx="522.3" cy="173.7" r="4.5"/>
<circle fill="#FFBB78" stroke="#494949" stroke-width="1.5" cx="552.2" cy="165.4" r="4.5"/>
<circle fill="#2CA02C" stroke="#494949" stroke-width="1.5" cx="500.7" cy="260.8" r="4.5"/>
<circle fill="#8C564B" stroke="#494949" stroke-width="1.5" cx="497.7" cy="18.1" r="4.5"/>
<circle fill="#8C564B" stroke="#494949" stroke-width="1.5" cx="452.8" cy="31.7" r="4.5"/>
<circle fill="#FFBB78" stroke="#494949" stroke-width="1.5" cx="500.7" cy="161.6" r="4.5"/>
<circle fill="#9467BD" stroke="#494949" stroke-width="1.5" cx="536.6" cy="60.1" r="4.5"/>
</svg>
