<?xml version="1.0" encoding="utf-8"?>
<!-- Generator: Adobe Illustrator 18.0.0, SVG Export Plug-In . SVG Version: 6.00 Build 0)  -->
<!DOCTYPE svg PUBLIC "-//W3C//DTD SVG 1.1//EN" "http://www.w3.org/Graphics/SVG/1.1/DTD/svg11.dtd">
<svg version="1.1" id="Layer_1" xmlns:bx="https://boxy-svg.com"
	 xmlns="http://www.w3.org/2000/svg" xmlns:xlink="http://www.w3.org/1999/xlink" x="0px" y="0px" viewBox="0 207.4 612 584.6"
	 enable-background="new 0 207.4 612 584.6" xml:space="preserve">
<path bx:origin="0.5 0.5" fill="#555555" d="M611.7,790.8H1.7V207.4h610V790.8 M60.9,731.6h491.6V266.5H60.9 M304.7,308.8h-97v-42.3
	h97V308.8z M400.7,350.8h-97v-42.3h97V350.8z M303.7,392.8h-97v-42.3h97V392.8z M399.7,434.8h-97v-42.3h97V434.8z M302.7,476.8h-97
	v-42.3h97V476.8z M398.7,518.8h-97v-42.3h97V518.8z M301.7,560.8h-97v-42.3h97V560.8z M397.7,602.8h-97v-42.3h97V602.8z
	 M300.7,644.8h-97v-42.3h97V644.8z M330.7,675.2c0,16.9-13.7,30.6-30.6,30.6c-16.9,0-30.6-13.7-30.6-30.6
	c0-16.9,13.7-30.6,30.6-30.6C317,644.6,330.7,658.3,330.7,675.2z"/>
</svg>
