<?xml version="1.0" encoding="utf-8"?>
<!-- Generator: Adobe Illustrator 18.0.0, SVG Export Plug-In . SVG Version: 6.00 Build 0)  -->
<!DOCTYPE svg PUBLIC "-//W3C//DTD SVG 1.1//EN" "http://www.w3.org/Graphics/SVG/1.1/DTD/svg11.dtd">
<svg version="1.1" id="Layer_1" xmlns="http://www.w3.org/2000/svg" xmlns:xlink="http://www.w3.org/1999/xlink" x="0px" y="0px"
	 viewBox="0 0 30 30" enable-background="new 0 0 30 30" xml:space="preserve">
<path fill="#DD5B26" d="M17.3,14.3c0-0.5-0.2-1-0.5-1.3c-0.3-0.3-0.9-0.5-1.7-0.5h-1.3v3.6h1.3c0.9,0,1.4-0.2,1.8-0.5
	C17.2,15.2,17.3,14.8,17.3,14.3 M20.8,14.2c0,1.2-0.3,2.2-0.9,2.9c-0.8,1-2,1.5-3.8,1.5h-2.3v4.6h-3.5V9.9H16c1.6,0,2.9,0.5,3.7,1.4
	C20.4,12,20.8,13,20.8,14.2z M30,30H0V1.3h30V30z M2.9,27.1h24.2V4.2H2.9"/>
</svg>
